<?xml version="1.0" encoding="UTF-8" standalone="no"?>
<svg
   xmlns:dc="http://purl.org/dc/elements/1.1/"
   xmlns:cc="http://creativecommons.org/ns#"
   xmlns:rdf="http://www.w3.org/1999/02/22-rdf-syntax-ns#"
   xmlns:svg="http://www.w3.org/2000/svg"
   xmlns="http://www.w3.org/2000/svg"
   xmlns:sodipodi="http://sodipodi.sourceforge.net/DTD/sodipodi-0.dtd"
   xmlns:inkscape="http://www.inkscape.org/namespaces/inkscape"
   version="1.1"
   width="512"
   height="512"
   x="0"
   y="0"
   viewBox="0 0 480.054 480.054"
   style="enable-background:new 0 0 512 512"
   xml:space="preserve"
   class=""
   id="svg6"
   sodipodi:docname="man.svg"
   inkscape:export-filename="C:\Users\Cyala\AndroidStudioProjects\viste\assets\man_icon.png"
   inkscape:export-xdpi="96"
   inkscape:export-ydpi="96"
   inkscape:version="0.92.4 (5da689c313, 2019-01-14)"><metadata
     id="metadata12"><rdf:RDF><cc:Work
         rdf:about=""><dc:format>image/svg+xml</dc:format><dc:type
           rdf:resource="http://purl.org/dc/dcmitype/StillImage" /></cc:Work></rdf:RDF></metadata><defs
     id="defs10" /><sodipodi:namedview
     pagecolor="#ffffff"
     bordercolor="#666666"
     borderopacity="1"
     objecttolerance="10"
     gridtolerance="10"
     guidetolerance="10"
     inkscape:pageopacity="0"
     inkscape:pageshadow="2"
     inkscape:window-width="2880"
     inkscape:window-height="1586"
     id="namedview8"
     showgrid="false"
     inkscape:zoom="1.3037281"
     inkscape:cx="309.72513"
     inkscape:cy="262.54984"
     inkscape:window-x="-11"
     inkscape:window-y="-11"
     inkscape:window-maximized="1"
     inkscape:current-layer="svg6" /><g
     id="g4"><path
       d="m265.063 334.655c-16.497 7.035-35.008 6.905-51.365-.269-2.204-.967-1.173-4.29 1.183-3.799 16.215 3.38 32.952 3.435 49.038.258 2.365-.467 3.361 2.865 1.144 3.81zm54.394 7.569c-6.734 0-13.153-1.968-18.608-5.631-2.908-1.953-6.756-1.664-9.465.557-30.538 25.031-72.984 24.782-103.119.238-2.686-2.188-6.48-2.481-9.378-.583-5.369 3.516-11.671 5.419-18.29 5.419-45.629 0-82.57 36.941-82.57 82.57v47.26c0 4.418 3.582 8 8 8h308c4.418 0 8-3.582 8-8v-47.26c0-45.63-36.942-82.57-82.57-82.57zm1.57 112.83h-24c-4.418 0-8-3.582-8-8s3.582-8 8-8h24c4.418 0 8 3.582 8 8s-3.582 8-8 8zm67.27-374.25c-15.358-24.933-38.873-41.913-65.81-48.62 4.495-3.766 3.564-10.853-1.65-13.36-27.41-13.19-58.6-19.83-87.87-18.7-80.208 3.109-126.626 63.13-124.94 140.92 0 44.851-.013 41.881.031 42.904.252 5.729 8.891 5.403 8.843-.331-.146-17.525-1.32-30.481 7.105-47.913 14.335-29.677 47.906-47.309 82.62-38.99 43.328 10.401 52.218 30.509 90.39 28.95 3.02-.27 16.65-2.53 35.36-7.76 14.235-3.979 28.94 5.763 30.37 21.02.311 4.66.295-2.677.282 46.378-.002 5.587 8.268 6.054 8.833.496.232-2.281.166 1.769.166-57.853 0-13.9 5.37-27.01 15.12-36.9 2.71-2.756 3.042-7.186 1.15-10.241zm-41.49 59.5c-.514-5.134-5.423-8.302-10.13-6.99-21.11 5.9-36.02 8.2-38.77 8.32-43.153 1.958-54.369-19.599-95.01-29.36-36.399-8.728-70.348 18.937-70.12 55.57.076 12.366.25 24.915.25 42.34 0 59 48 107 107 107s107-48 107-107c0-70.419.092-66.453-.22-69.88z"
       fill="#56728f"
       data-original="#000000"
       style=""
       class=""
       id="path2" /></g></svg>